<svg xmlns="http://www.w3.org/2000/svg" viewBox="0 0 62.01 39.53"><defs><style>.cls-1{fill:#00e2d6;}</style></defs><title>Asset 1</title><g id="Layer_2" data-name="Layer 2"><g id="Layer_2-2" data-name="Layer 2"><g id="_Group_" data-name="&lt;Group&gt;"><g id="_Group_2" data-name="&lt;Group&gt;"><path id="_Path_" data-name="&lt;Path&gt;" class="cls-1" d="M62,35.92H55.17a24.17,24.17,0,0,0-5.74-15.63l5.22-4.43A31,31,0,0,1,62,35.92Z"/></g><g id="_Group_3" data-name="&lt;Group&gt;"><path id="_Path_2" data-name="&lt;Path&gt;" class="cls-1" d="M6.84,35.92H0A31,31,0,0,1,48.24,10.14l-3.81,5.69A24.17,24.17,0,0,0,6.84,35.92Z"/></g><g id="_Group_4" data-name="&lt;Group&gt;"><path id="_Path_3" data-name="&lt;Path&gt;" class="cls-1" d="M28.14,34.05,53.33.27A.67.67,0,0,1,54.45,1L33.88,37.78a3.43,3.43,0,0,1-6-3.35A3.73,3.73,0,0,1,28.14,34.05Z"/></g></g></g></g></svg>